<svg xmlns="http://www.w3.org/2000/svg" viewBox="0 0 700 210" font-family="-apple-system, 'Helvetica Neue', Arial, sans-serif">
  <defs>
    <style>
      .seg-reached { stroke: #1a2744; stroke-width: 3; fill: none; stroke-linecap: round; }
      .seg-not-reached { stroke: #1a2744; stroke-width: 1; fill: none; opacity: 0.35; stroke-linecap: round; }
      .seg-scored-fill { fill: #1a2744; opacity: 0.12; }
      .base-filled { fill: #1a2744; stroke: none; }
      .base-empty { fill: none; stroke: #1a2744; stroke-width: 1.2; }
      .home { fill: none; stroke: #1a2744; stroke-width: 1.2; }
      .caption { font-size: 13px; fill: #333; text-anchor: middle; font-weight: 500; }
      .subcaption { font-size: 11px; fill: #888; text-anchor: middle; }
      .cs-line { stroke: #c44; stroke-width: 2.5; fill: none; stroke-linecap: round; }
      .cs-cross { stroke: #c44; stroke-width: 2; fill: none; stroke-linecap: round; }
      .annot-cs { font-size: 9px; fill: #c44; text-anchor: middle; font-weight: 600; }
    </style>
  </defs>

  <!--
    Correct diamond geometry (viewed from behind home plate):
    Home = bottom (80,100), 1B = right (140,50), 2B = top (80,0), 3B = left (20,50)
    Runner path: Home → 1B → 2B → 3B → Home (counterclockwise)
    Segments: 0=Home→1B (bottom-right), 1=1B→2B (right-top), 2=2B→3B (top-left), 3=3B→Home (left-bottom)
  -->

  <!-- Example 1: Single (reached 1B) -->
  <g transform="translate(30,10)">
    <!-- Seg 0: Home→1B (reached) -->
    <line x1="80" y1="100" x2="140" y2="50" class="seg-reached"/>
    <!-- Seg 1: 1B→2B (not reached) -->
    <line x1="140" y1="50" x2="80" y2="0" class="seg-not-reached"/>
    <!-- Seg 2: 2B→3B (not reached) -->
    <line x1="80" y1="0" x2="20" y2="50" class="seg-not-reached"/>
    <!-- Seg 3: 3B→Home (not reached) -->
    <line x1="20" y1="50" x2="80" y2="100" class="seg-not-reached"/>
    <!-- Bases -->
    <rect x="136" y="46" width="8" height="8" transform="rotate(45 140 50)" class="base-filled"/>
    <rect x="76" y="-4" width="8" height="8" transform="rotate(45 80 0)" class="base-empty"/>
    <rect x="16" y="46" width="8" height="8" transform="rotate(45 20 50)" class="base-empty"/>
    <!-- Home plate -->
    <polygon points="80,106 76,102 76,97 84,97 84,102" class="home"/>
    <!-- Caption -->
    <text x="80" y="130" class="caption">Single</text>
    <text x="80" y="145" class="subcaption">1B reached</text>
  </g>

  <!-- Example 2: Double (reached 2B) -->
  <g transform="translate(200,10)">
    <!-- Seg 0: Home→1B (reached) -->
    <line x1="80" y1="100" x2="140" y2="50" class="seg-reached"/>
    <!-- Seg 1: 1B→2B (reached) -->
    <line x1="140" y1="50" x2="80" y2="0" class="seg-reached"/>
    <!-- Seg 2: 2B→3B (not reached) -->
    <line x1="80" y1="0" x2="20" y2="50" class="seg-not-reached"/>
    <!-- Seg 3: 3B→Home (not reached) -->
    <line x1="20" y1="50" x2="80" y2="100" class="seg-not-reached"/>
    <!-- Bases -->
    <rect x="136" y="46" width="8" height="8" transform="rotate(45 140 50)" class="base-empty"/>
    <rect x="76" y="-4" width="8" height="8" transform="rotate(45 80 0)" class="base-filled"/>
    <rect x="16" y="46" width="8" height="8" transform="rotate(45 20 50)" class="base-empty"/>
    <!-- Home plate -->
    <polygon points="80,106 76,102 76,97 84,97 84,102" class="home"/>
    <!-- Caption -->
    <text x="80" y="130" class="caption">Double</text>
    <text x="80" y="145" class="subcaption">2B reached</text>
  </g>

  <!-- Example 3: Home Run (scored - all segments + fill) -->
  <g transform="translate(370,10)">
    <!-- Filled interior -->
    <polygon points="80,100 140,50 80,0 20,50" class="seg-scored-fill"/>
    <!-- Seg 0: Home→1B -->
    <line x1="80" y1="100" x2="140" y2="50" class="seg-reached"/>
    <!-- Seg 1: 1B→2B -->
    <line x1="140" y1="50" x2="80" y2="0" class="seg-reached"/>
    <!-- Seg 2: 2B→3B -->
    <line x1="80" y1="0" x2="20" y2="50" class="seg-reached"/>
    <!-- Seg 3: 3B→Home -->
    <line x1="20" y1="50" x2="80" y2="100" class="seg-reached"/>
    <!-- Bases -->
    <rect x="136" y="46" width="8" height="8" transform="rotate(45 140 50)" class="base-empty"/>
    <rect x="76" y="-4" width="8" height="8" transform="rotate(45 80 0)" class="base-empty"/>
    <rect x="16" y="46" width="8" height="8" transform="rotate(45 20 50)" class="base-empty"/>
    <!-- Home plate -->
    <polygon points="80,106 76,102 76,97 84,97 84,102" class="home"/>
    <!-- Caption -->
    <text x="80" y="130" class="caption">Home Run</text>
    <text x="80" y="145" class="subcaption">Scored (filled)</text>
  </g>

  <!-- Example 4: Caught Stealing 2B -->
  <g transform="translate(540,10)">
    <!-- Full thin diamond outline -->
    <line x1="80" y1="100" x2="140" y2="50" class="seg-not-reached"/>
    <line x1="140" y1="50" x2="80" y2="0" class="seg-not-reached"/>
    <line x1="80" y1="0" x2="20" y2="50" class="seg-not-reached"/>
    <line x1="20" y1="50" x2="80" y2="100" class="seg-not-reached"/>
    <!-- Seg 0: Home→1B (reached) -->
    <line x1="80" y1="100" x2="140" y2="50" class="seg-reached"/>
    <!-- CS: red half-line from 1B toward 2B (midpoint of 1B→2B segment) -->
    <line x1="140" y1="50" x2="110" y2="25" class="cs-line"/>
    <!-- Red crossbar perpendicular to the segment at midpoint -->
    <line x1="103" y1="32" x2="117" y2="18" class="cs-cross" transform="rotate(90 110 25)"/>
    <!-- CS annotation -->
    <text x="100" y="16" class="annot-cs">CS</text>
    <!-- Bases -->
    <rect x="136" y="46" width="8" height="8" transform="rotate(45 140 50)" class="base-empty"/>
    <rect x="76" y="-4" width="8" height="8" transform="rotate(45 80 0)" class="base-empty"/>
    <rect x="16" y="46" width="8" height="8" transform="rotate(45 20 50)" class="base-empty"/>
    <!-- Home plate -->
    <polygon points="80,106 76,102 76,97 84,97 84,102" class="home"/>
    <!-- Caption -->
    <text x="80" y="130" class="caption">Caught Stealing</text>
    <text x="80" y="145" class="subcaption">Red crossbar at midpoint</text>
  </g>

  <!-- Legend text -->
  <g transform="translate(0,160)">
    <text x="350" y="20" font-size="11" fill="#666" text-anchor="middle" font-style="italic">Heavy line = reached that base. Thin line = didn't reach. Filled interior = scored a run.</text>
    <text x="350" y="38" font-size="11" fill="#666" text-anchor="middle" font-style="italic">Filled base square = runner's current position. Red crossbar = runner thrown out.</text>
  </g>
</svg>
